<mxfile host="app.diagrams.net" modified="2024-06-02T14:27:57.504Z" agent="Mozilla/5.0 (Windows NT 10.0; Win64; x64) AppleWebKit/537.36 (KHTML, like Gecko) Chrome/125.0.0.0 Safari/537.36" etag="dZdUIW7jhA3OSTbji1GS" version="24.4.13" type="device">
  <diagram name="Page-1" id="aDQcd44HCAs7w3r22OpL">
    <mxGraphModel dx="1839" dy="532" grid="1" gridSize="10" guides="1" tooltips="1" connect="1" arrows="1" fold="1" page="1" pageScale="1" pageWidth="850" pageHeight="1100" math="0" shadow="0">
      <root>
        <mxCell id="0" />
        <mxCell id="1" parent="0" />
        <mxCell id="WOV59IcisWpvU1us833Z-43" value="" style="edgeStyle=orthogonalEdgeStyle;rounded=0;orthogonalLoop=1;jettySize=auto;html=1;" parent="1" source="WOV59IcisWpvU1us833Z-1" target="WOV59IcisWpvU1us833Z-42" edge="1">
          <mxGeometry relative="1" as="geometry" />
        </mxCell>
        <mxCell id="WOV59IcisWpvU1us833Z-1" value="Start" style="strokeWidth=2;html=1;shape=mxgraph.flowchart.start_2;whiteSpace=wrap;" parent="1" vertex="1">
          <mxGeometry x="67.5" y="20" width="50" height="50" as="geometry" />
        </mxCell>
        <mxCell id="WOV59IcisWpvU1us833Z-5" value="" style="edgeStyle=orthogonalEdgeStyle;rounded=0;orthogonalLoop=1;jettySize=auto;html=1;" parent="1" source="WOV59IcisWpvU1us833Z-2" target="WOV59IcisWpvU1us833Z-4" edge="1">
          <mxGeometry relative="1" as="geometry" />
        </mxCell>
        <mxCell id="WOV59IcisWpvU1us833Z-2" value="inisiasi jendela waktu" style="rounded=1;whiteSpace=wrap;html=1;absoluteArcSize=1;arcSize=14;strokeWidth=2;" parent="1" vertex="1">
          <mxGeometry x="42.5" y="145" width="100" height="35" as="geometry" />
        </mxCell>
        <mxCell id="WOV59IcisWpvU1us833Z-70" value="" style="edgeStyle=orthogonalEdgeStyle;rounded=0;orthogonalLoop=1;jettySize=auto;html=1;" parent="1" source="WOV59IcisWpvU1us833Z-4" target="WOV59IcisWpvU1us833Z-6" edge="1">
          <mxGeometry relative="1" as="geometry" />
        </mxCell>
        <mxCell id="WOV59IcisWpvU1us833Z-4" value="masukkan daftar &lt;br&gt;jadwal" style="shape=parallelogram;perimeter=parallelogramPerimeter;whiteSpace=wrap;html=1;fixedSize=1;rounded=1;arcSize=14;strokeWidth=2;" parent="1" vertex="1">
          <mxGeometry x="27.5" y="201.56" width="130" height="35" as="geometry" />
        </mxCell>
        <mxCell id="4UMJVjOZPKRqkGtR8fpc-1" style="edgeStyle=orthogonalEdgeStyle;rounded=0;orthogonalLoop=1;jettySize=auto;html=1;exitX=0.5;exitY=1;exitDx=0;exitDy=0;entryX=0.5;entryY=0;entryDx=0;entryDy=0;" parent="1" source="WOV59IcisWpvU1us833Z-6" target="WOV59IcisWpvU1us833Z-36" edge="1">
          <mxGeometry relative="1" as="geometry" />
        </mxCell>
        <mxCell id="WOV59IcisWpvU1us833Z-6" value="inisiasi variabel i = 0&lt;br&gt;(untuk indeks)" style="whiteSpace=wrap;html=1;rounded=1;arcSize=14;strokeWidth=2;" parent="1" vertex="1">
          <mxGeometry x="32.5" y="258.12" width="120" height="42.5" as="geometry" />
        </mxCell>
        <mxCell id="WOV59IcisWpvU1us833Z-39" value="" style="edgeStyle=orthogonalEdgeStyle;rounded=0;orthogonalLoop=1;jettySize=auto;html=1;entryX=0.5;entryY=0;entryDx=0;entryDy=0;" parent="1" source="WOV59IcisWpvU1us833Z-36" target="WOV59IcisWpvU1us833Z-38" edge="1">
          <mxGeometry relative="1" as="geometry">
            <Array as="points">
              <mxPoint x="193" y="358" />
              <mxPoint x="193" y="370" />
            </Array>
          </mxGeometry>
        </mxCell>
        <mxCell id="WOV59IcisWpvU1us833Z-40" value="tidak" style="edgeLabel;html=1;align=center;verticalAlign=middle;resizable=0;points=[];" parent="WOV59IcisWpvU1us833Z-39" vertex="1" connectable="0">
          <mxGeometry x="-0.2786" y="1" relative="1" as="geometry">
            <mxPoint x="2" y="9" as="offset" />
          </mxGeometry>
        </mxCell>
        <mxCell id="WOV59IcisWpvU1us833Z-57" value="" style="edgeStyle=orthogonalEdgeStyle;rounded=0;orthogonalLoop=1;jettySize=auto;html=1;entryX=0.5;entryY=0;entryDx=0;entryDy=0;" parent="1" source="WOV59IcisWpvU1us833Z-36" target="WOV59IcisWpvU1us833Z-56" edge="1">
          <mxGeometry relative="1" as="geometry" />
        </mxCell>
        <mxCell id="WOV59IcisWpvU1us833Z-68" value="ya" style="edgeLabel;html=1;align=center;verticalAlign=middle;resizable=0;points=[];" parent="WOV59IcisWpvU1us833Z-57" vertex="1" connectable="0">
          <mxGeometry x="-0.4223" y="4" relative="1" as="geometry">
            <mxPoint x="-2" y="8" as="offset" />
          </mxGeometry>
        </mxCell>
        <mxCell id="WOV59IcisWpvU1us833Z-36" value="i = jumlah&lt;br&gt;jadwal?" style="rhombus;whiteSpace=wrap;html=1;rounded=1;arcSize=14;strokeWidth=2;" parent="1" vertex="1">
          <mxGeometry x="40" y="319.06" width="108" height="78.12" as="geometry" />
        </mxCell>
        <mxCell id="WOV59IcisWpvU1us833Z-77" style="edgeStyle=orthogonalEdgeStyle;rounded=0;orthogonalLoop=1;jettySize=auto;html=1;exitX=0.888;exitY=1;exitDx=0;exitDy=0;entryX=0.5;entryY=0;entryDx=0;entryDy=0;exitPerimeter=0;" parent="1" source="WOV59IcisWpvU1us833Z-38" target="WOV59IcisWpvU1us833Z-45" edge="1">
          <mxGeometry relative="1" as="geometry" />
        </mxCell>
        <mxCell id="WOV59IcisWpvU1us833Z-38" value="masukkan jadwal ke&lt;br&gt;dalam jendela waktu" style="whiteSpace=wrap;html=1;rounded=1;arcSize=14;strokeWidth=2;" parent="1" vertex="1">
          <mxGeometry x="132.5" y="390.005" width="120" height="60" as="geometry" />
        </mxCell>
        <mxCell id="WOV59IcisWpvU1us833Z-44" value="" style="edgeStyle=orthogonalEdgeStyle;rounded=0;orthogonalLoop=1;jettySize=auto;html=1;" parent="1" source="WOV59IcisWpvU1us833Z-42" target="WOV59IcisWpvU1us833Z-2" edge="1">
          <mxGeometry relative="1" as="geometry" />
        </mxCell>
        <mxCell id="WOV59IcisWpvU1us833Z-42" value="inisiasi bentrok = false" style="rounded=1;whiteSpace=wrap;html=1;strokeWidth=2;" parent="1" vertex="1">
          <mxGeometry x="40" y="89.5" width="105" height="35" as="geometry" />
        </mxCell>
        <mxCell id="WOV59IcisWpvU1us833Z-48" value="" style="edgeStyle=orthogonalEdgeStyle;rounded=0;orthogonalLoop=1;jettySize=auto;html=1;" parent="1" source="WOV59IcisWpvU1us833Z-45" target="WOV59IcisWpvU1us833Z-47" edge="1">
          <mxGeometry relative="1" as="geometry" />
        </mxCell>
        <mxCell id="WOV59IcisWpvU1us833Z-61" value="ya" style="edgeLabel;html=1;align=center;verticalAlign=middle;resizable=0;points=[];" parent="WOV59IcisWpvU1us833Z-48" vertex="1" connectable="0">
          <mxGeometry x="-0.1491" y="-1" relative="1" as="geometry">
            <mxPoint x="-11" y="-11" as="offset" />
          </mxGeometry>
        </mxCell>
        <mxCell id="WOV59IcisWpvU1us833Z-71" style="edgeStyle=orthogonalEdgeStyle;rounded=0;orthogonalLoop=1;jettySize=auto;html=1;exitX=0;exitY=0.5;exitDx=0;exitDy=0;" parent="1" source="WOV59IcisWpvU1us833Z-45" edge="1">
          <mxGeometry relative="1" as="geometry">
            <Array as="points">
              <mxPoint x="180" y="506" />
              <mxPoint x="148" y="506" />
            </Array>
            <mxPoint x="150" y="506" as="targetPoint" />
          </mxGeometry>
        </mxCell>
        <mxCell id="WOV59IcisWpvU1us833Z-74" value="tidak" style="edgeLabel;html=1;align=center;verticalAlign=middle;resizable=0;points=[];" parent="WOV59IcisWpvU1us833Z-71" vertex="1" connectable="0">
          <mxGeometry x="-0.5565" y="2" relative="1" as="geometry">
            <mxPoint x="-4" y="-16" as="offset" />
          </mxGeometry>
        </mxCell>
        <mxCell id="WOV59IcisWpvU1us833Z-45" value="jendela waktu sudah terisi?" style="rhombus;whiteSpace=wrap;html=1;rounded=1;arcSize=14;strokeWidth=2;" parent="1" vertex="1">
          <mxGeometry x="190" y="472.5" width="102.5" height="67.5" as="geometry" />
        </mxCell>
        <mxCell id="WOV59IcisWpvU1us833Z-50" value="" style="edgeStyle=orthogonalEdgeStyle;rounded=0;orthogonalLoop=1;jettySize=auto;html=1;" parent="1" source="WOV59IcisWpvU1us833Z-47" target="WOV59IcisWpvU1us833Z-49" edge="1">
          <mxGeometry relative="1" as="geometry" />
        </mxCell>
        <mxCell id="WOV59IcisWpvU1us833Z-47" value="bentrok = true" style="whiteSpace=wrap;html=1;rounded=1;arcSize=14;strokeWidth=2;" parent="1" vertex="1">
          <mxGeometry x="147.5" y="570" width="90" height="35" as="geometry" />
        </mxCell>
        <mxCell id="WOV59IcisWpvU1us833Z-72" style="edgeStyle=orthogonalEdgeStyle;rounded=0;orthogonalLoop=1;jettySize=auto;html=1;exitX=0;exitY=0.5;exitDx=0;exitDy=0;entryX=0;entryY=1;entryDx=0;entryDy=0;" parent="1" source="Bhj4Nz4YMnT-7IlATpHs-1" target="WOV59IcisWpvU1us833Z-36" edge="1">
          <mxGeometry relative="1" as="geometry" />
        </mxCell>
        <mxCell id="Bhj4Nz4YMnT-7IlATpHs-2" style="edgeStyle=orthogonalEdgeStyle;rounded=0;orthogonalLoop=1;jettySize=auto;html=1;exitX=0.5;exitY=1;exitDx=0;exitDy=0;entryX=0.5;entryY=0;entryDx=0;entryDy=0;" edge="1" parent="1" source="WOV59IcisWpvU1us833Z-49" target="Bhj4Nz4YMnT-7IlATpHs-1">
          <mxGeometry relative="1" as="geometry" />
        </mxCell>
        <mxCell id="WOV59IcisWpvU1us833Z-49" value="keluarkan output&lt;br&gt;&quot;terdapat bentrok jadwal&quot;" style="whiteSpace=wrap;html=1;rounded=1;arcSize=14;strokeWidth=2;" parent="1" vertex="1">
          <mxGeometry x="132.5" y="630" width="120" height="42.5" as="geometry" />
        </mxCell>
        <mxCell id="WOV59IcisWpvU1us833Z-59" value="" style="edgeStyle=orthogonalEdgeStyle;rounded=0;orthogonalLoop=1;jettySize=auto;html=1;exitX=0;exitY=0.5;exitDx=0;exitDy=0;" parent="1" source="WOV59IcisWpvU1us833Z-56" target="WOV59IcisWpvU1us833Z-58" edge="1">
          <mxGeometry relative="1" as="geometry" />
        </mxCell>
        <mxCell id="WOV59IcisWpvU1us833Z-60" value="ya" style="edgeLabel;html=1;align=center;verticalAlign=middle;resizable=0;points=[];" parent="WOV59IcisWpvU1us833Z-59" vertex="1" connectable="0">
          <mxGeometry x="0.0673" y="-1" relative="1" as="geometry">
            <mxPoint x="-2" y="-10" as="offset" />
          </mxGeometry>
        </mxCell>
        <mxCell id="WOV59IcisWpvU1us833Z-75" style="edgeStyle=orthogonalEdgeStyle;rounded=0;orthogonalLoop=1;jettySize=auto;html=1;exitX=0.5;exitY=1;exitDx=0;exitDy=0;entryX=0.5;entryY=0;entryDx=0;entryDy=0;" parent="1" source="WOV59IcisWpvU1us833Z-56" target="Bhj4Nz4YMnT-7IlATpHs-4" edge="1">
          <mxGeometry relative="1" as="geometry" />
        </mxCell>
        <mxCell id="WOV59IcisWpvU1us833Z-76" value="tidak" style="edgeLabel;html=1;align=center;verticalAlign=middle;resizable=0;points=[];" parent="WOV59IcisWpvU1us833Z-75" vertex="1" connectable="0">
          <mxGeometry x="-0.5362" y="-3" relative="1" as="geometry">
            <mxPoint x="21" as="offset" />
          </mxGeometry>
        </mxCell>
        <mxCell id="WOV59IcisWpvU1us833Z-56" value="bentrok = false?" style="rhombus;whiteSpace=wrap;html=1;rounded=1;arcSize=14;strokeWidth=2;" parent="1" vertex="1">
          <mxGeometry x="-47.5" y="379.06" width="80" height="78.12" as="geometry" />
        </mxCell>
        <mxCell id="WOV59IcisWpvU1us833Z-73" value="" style="edgeStyle=orthogonalEdgeStyle;rounded=0;orthogonalLoop=1;jettySize=auto;html=1;" parent="1" source="WOV59IcisWpvU1us833Z-58" target="WOV59IcisWpvU1us833Z-65" edge="1">
          <mxGeometry relative="1" as="geometry" />
        </mxCell>
        <mxCell id="WOV59IcisWpvU1us833Z-58" value="keluarkan output&lt;br&gt;&quot;tidak terjadi bentrok jadwal&quot;" style="whiteSpace=wrap;html=1;rounded=1;arcSize=14;strokeWidth=2;" parent="1" vertex="1">
          <mxGeometry x="-160" y="450" width="120" height="60" as="geometry" />
        </mxCell>
        <mxCell id="WOV59IcisWpvU1us833Z-65" value="end" style="shape=ellipse;html=1;dashed=0;whiteSpace=wrap;aspect=fixed;strokeWidth=5;perimeter=ellipsePerimeter;" parent="1" vertex="1">
          <mxGeometry x="-124" y="600" width="48" height="48" as="geometry" />
        </mxCell>
        <mxCell id="Bhj4Nz4YMnT-7IlATpHs-1" value="i = i+1" style="whiteSpace=wrap;html=1;rounded=1;arcSize=14;strokeWidth=2;" vertex="1" parent="1">
          <mxGeometry x="133.75" y="690" width="120" height="20" as="geometry" />
        </mxCell>
        <mxCell id="Bhj4Nz4YMnT-7IlATpHs-5" style="edgeStyle=orthogonalEdgeStyle;rounded=0;orthogonalLoop=1;jettySize=auto;html=1;exitX=0.5;exitY=1;exitDx=0;exitDy=0;entryX=1;entryY=0.5;entryDx=0;entryDy=0;" edge="1" parent="1" source="Bhj4Nz4YMnT-7IlATpHs-4" target="WOV59IcisWpvU1us833Z-65">
          <mxGeometry relative="1" as="geometry" />
        </mxCell>
        <mxCell id="Bhj4Nz4YMnT-7IlATpHs-4" value="keluarkan output&lt;br&gt;&quot;terdapat bentrok jadwal&quot;" style="whiteSpace=wrap;html=1;rounded=1;arcSize=14;strokeWidth=2;" vertex="1" parent="1">
          <mxGeometry x="-67.5" y="540" width="120" height="42.5" as="geometry" />
        </mxCell>
        <mxCell id="Bhj4Nz4YMnT-7IlATpHs-8" style="edgeStyle=orthogonalEdgeStyle;rounded=0;orthogonalLoop=1;jettySize=auto;html=1;exitX=0.25;exitY=0;exitDx=0;exitDy=0;entryX=0.5;entryY=1;entryDx=0;entryDy=0;" edge="1" parent="1" source="Bhj4Nz4YMnT-7IlATpHs-6" target="WOV59IcisWpvU1us833Z-36">
          <mxGeometry relative="1" as="geometry">
            <Array as="points">
              <mxPoint x="94" y="496" />
            </Array>
          </mxGeometry>
        </mxCell>
        <mxCell id="Bhj4Nz4YMnT-7IlATpHs-6" value="i = i+1" style="whiteSpace=wrap;html=1;rounded=1;arcSize=14;strokeWidth=2;" vertex="1" parent="1">
          <mxGeometry x="88" y="496.25" width="60" height="20" as="geometry" />
        </mxCell>
      </root>
    </mxGraphModel>
  </diagram>
</mxfile>
